<svg width="22" height="32" viewBox="0 0 22 32" fill="none" xmlns="http://www.w3.org/2000/svg">
<path d="M19.1195 15.3171L17.0733 28.8679C17.0118 29.2751 16.8063 29.6467 16.4942 29.9152C16.1821 30.1838 15.784 30.3315 15.3722 30.3316H6.60974C6.19793 30.3317 5.79972 30.1841 5.48746 29.9156C5.17519 29.6472 4.96958 29.2756 4.90797 28.8684L2.85828 15.3171" stroke="white" stroke-width="2" stroke-linecap="round" stroke-linejoin="round"/>
<path d="M7.48279 28.5215C8.10243 28.5215 8.60474 28.0192 8.60474 27.3995C8.60474 26.7799 8.10243 26.2776 7.48279 26.2776C6.86315 26.2776 6.36084 26.7799 6.36084 27.3995C6.36084 28.0192 6.86315 28.5215 7.48279 28.5215Z" fill="white"/>
<path d="M13.2671 28.9895C13.8867 28.9895 14.389 28.4872 14.389 27.8676C14.389 27.2479 13.8867 26.7456 13.2671 26.7456C12.6475 26.7456 12.1451 27.2479 12.1451 27.8676C12.1451 28.4872 12.6475 28.9895 13.2671 28.9895Z" fill="white"/>
<path d="M6.96167 23.7451C7.58131 23.7451 8.08362 23.2428 8.08362 22.6232C8.08362 22.0035 7.58131 21.5012 6.96167 21.5012C6.34204 21.5012 5.83972 22.0035 5.83972 22.6232C5.83972 23.2428 6.34204 23.7451 6.96167 23.7451Z" fill="white"/>
<path d="M15.0338 21.9287C15.6535 21.9287 16.1558 21.4264 16.1558 20.8068C16.1558 20.1871 15.6535 19.6848 15.0338 19.6848C14.4142 19.6848 13.9119 20.1871 13.9119 20.8068C13.9119 21.4264 14.4142 21.9287 15.0338 21.9287Z" fill="white"/>
<path d="M5.83972 20.2583C6.45936 20.2583 6.96167 19.756 6.96167 19.1364C6.96167 18.5167 6.45936 18.0144 5.83972 18.0144C5.22009 18.0144 4.71777 18.5167 4.71777 19.1364C4.71777 19.756 5.22009 20.2583 5.83972 20.2583Z" fill="white"/>
<path d="M10.6228 26.4573C11.2424 26.4573 11.7448 25.955 11.7448 25.3353C11.7448 24.7157 11.2424 24.2134 10.6228 24.2134C10.0032 24.2134 9.50085 24.7157 9.50085 25.3353C9.50085 25.955 10.0032 26.4573 10.6228 26.4573Z" fill="white"/>
<path d="M15.0338 25.5601C15.6535 25.5601 16.1558 25.0577 16.1558 24.4381C16.1558 23.8185 15.6535 23.3162 15.0338 23.3162C14.4142 23.3162 13.9119 23.8185 13.9119 24.4381C13.9119 25.0577 14.4142 25.5601 15.0338 25.5601Z" fill="white"/>
<path d="M21 12.3498C20.9989 11.9769 20.8503 11.6195 20.5866 11.3558C20.3229 11.0921 19.9655 10.9435 19.5926 10.9424H2.40732C2.0344 10.9435 1.67707 11.0921 1.41338 11.3558C1.14969 11.6196 1.00108 11.9769 1 12.3498V13.535H21V12.3498Z" stroke="white" stroke-width="2" stroke-linecap="round" stroke-linejoin="round"/>
<path d="M10.7557 10.9424L11.1821 9.06492C11.8683 6.47321 12.8241 5.24967 15.3142 3.67793L19.5145 1L20.9809 3.22668L16.4844 6.12759C15.3856 6.83652 14.526 7.86016 14.0178 9.06497L13.5707 10.9424" stroke="white" stroke-width="2" stroke-linecap="round" stroke-linejoin="round"/>
<path d="M12.8484 5.65405L14.8956 7.57545" stroke="white" stroke-width="2" stroke-linecap="round" stroke-linejoin="round"/>
<path d="M14.4047 4.28687L15.8548 6.58961" stroke="white" stroke-width="2" stroke-linecap="round" stroke-linejoin="round"/>
<path d="M11.7383 7.41626L14.2437 8.58533" stroke="white" stroke-width="2" stroke-linecap="round" stroke-linejoin="round"/>
<path d="M9.80152 15.3171L9.32861 22.4311" stroke="white" stroke-width="2" stroke-linecap="round" stroke-linejoin="round"/>
<path d="M12.5681 15.3171L11.9169 22.4902" stroke="white" stroke-width="2" stroke-linecap="round" stroke-linejoin="round"/>
</svg>
